<svg id="Layer_1" data-name="Layer 1" xmlns="http://www.w3.org/2000/svg" viewBox="0 0 2000 380.91"><defs><style>.cls-1{fill:#074e31;}.cls-2{fill:#d2af6b;}.cls-3{fill:#fff;}.cls-4{fill:#2d2a26;}</style></defs><g id="Хаан_банк" data-name="Хаан банк"><path class="cls-1" d="M189.32,222.3a9.93,9.93,0,1,0,9.94,9.92,9.92,9.92,0,0,0-9.94-9.92"/><path class="cls-1" d="M189.32,158.51a9.93,9.93,0,1,0-9.91-9.94,9.94,9.94,0,0,0,9.91,9.94"/><path class="cls-1" d="M380.83,111.58A111.54,111.54,0,0,0,190.42,32.71,111.54,111.54,0,1,0,32.67,190.45,111.55,111.55,0,0,0,190.42,348.2,111.55,111.55,0,0,0,348.17,190.45a111.19,111.19,0,0,0,32.66-78.87M190.4,32.72a157.43,157.43,0,0,1,40.86,5.35L190.4,78.91l0,0h-.09l0,0L149.57,38.07a157.09,157.09,0,0,1,40.83-5.35M78.92,190.44v.07l0,0L38,231.3a158.23,158.23,0,0,1,0-81.67l40.83,40.83,0,0v0Zm32.61,0a78.88,78.88,0,0,1,72.81-78.64l.19,0c1.93-.14,3.9-.21,5.87-.21.57,0,1.15,0,1.72,0a37.09,37.09,0,0,1-2.37,74.08,3,3,0,0,0-.42,0,3,3,0,0,0-.43,0,46,46,0,0,0-20,4.72,46.56,46.56,0,0,0-17.71,68.49,78.83,78.83,0,0,1-39.62-68.44m78.89,0Zm0,157.74a157.09,157.09,0,0,1-40.83-5.36L190.4,302l0-.05h.09l0,.05,40.84,40.83a157.17,157.17,0,0,1-40.84,5.36m35.69-87.41a78.07,78.07,0,0,1-35.69,8.54h-1.07c-.31,0-.64,0-1,0s-.79,0-1.19,0a1.12,1.12,0,0,1-.33,0,37.09,37.09,0,0,1,2.47-74.1,46.52,46.52,0,0,0,36.79-75,78.89,78.89,0,0,1,0,140.68m116.7-29.48L302,190.46l0,0v-.07l0,0,40.83-40.83v0a158.23,158.23,0,0,1,0,81.67"/><path class="cls-2" d="M142.76,232.22a46.57,46.57,0,0,1,26.1-41.83,46,46,0,0,1,20-4.72,3,3,0,0,1,.42,0,3.1,3.1,0,0,1,.43,0,37.09,37.09,0,0,0,2.37-74.08c-.56,0-1.15,0-1.72,0-2,0-3.94.07-5.87.21l-.19,0a78.9,78.9,0,0,0-33.2,147.08,46.29,46.29,0,0,1-8.38-26.66m46.56-93.56a9.93,9.93,0,1,1-9.91,9.91,9.92,9.92,0,0,1,9.91-9.91"/><path class="cls-2" d="M226.12,120.1a46.52,46.52,0,0,1-36.8,75,37.09,37.09,0,0,0-2.46,74.1,1.67,1.67,0,0,0,.33,0c.39,0,.79.05,1.2.05s.63,0,.93,0h1.08A78.89,78.89,0,0,0,226.12,120.1m-36.8,122.05a9.93,9.93,0,1,1,9.94-9.93,9.92,9.92,0,0,1-9.94,9.93"/><polygon class="cls-1" points="78.92 190.51 78.92 190.44 78.88 190.47 78.92 190.51"/><polygon class="cls-1" points="190.41 78.96 190.45 78.96 190.41 78.91 190.36 78.96 190.41 78.96"/><polygon class="cls-1" points="190.41 301.95 190.36 301.95 190.41 302 190.45 301.95 190.41 301.95"/><polygon class="cls-1" points="301.91 190.51 301.96 190.47 301.91 190.44 301.91 190.51"/><path class="cls-3" d="M149.57,342.83a158.23,158.23,0,0,0,81.67,0L190.4,302Z"/><path class="cls-3" d="M32.68,190.47A157,157,0,0,0,38,231.3l40.83-40.83L38,149.63a157.17,157.17,0,0,0-5.36,40.84"/><path class="cls-3" d="M231.26,38.07a158.59,158.59,0,0,0-81.69,0l40.84,40.84Z"/><path class="cls-3" d="M302,190.47l40.83,40.83a158.23,158.23,0,0,0,0-81.67Z"/><polygon class="cls-4" points="476.01 285.63 539.33 186.66 481.43 95.39 524.78 95.39 561.01 153.29 597.8 95.39 640.59 95.39 582.68 186.38 646 285.63 602.08 285.63 560.72 220.03 519.36 285.63 476.01 285.63"/><path class="cls-4" d="M802.85,285.63l-15.69-43.35h-75.3l-15.68,43.35H656L729,95.39h41.08l73,190.24Zm-79-78.72H774.9l-25.39-69.59Z"/><path class="cls-4" d="M1000.05,285.63l-15.69-43.35h-75.3l-15.69,43.35H853.16l73-190.24h41.08l73,190.24Zm-79-78.72H972.1l-25.38-69.59Z"/><polygon class="cls-4" points="1097.85 285.63 1059.91 285.63 1059.91 95.39 1097.85 95.39 1097.85 171.83 1170.01 171.83 1170.01 95.39 1207.95 95.39 1207.95 285.63 1170.01 285.63 1170.01 207.19 1097.85 207.19 1097.85 285.63"/><path class="cls-4" d="M1381.65,285.63h-58.19V95.39h111v35.37H1360V170.4h26.53q30,0,45.35,14.27t15.4,41.63q0,30.24-17.53,44.78t-48.06,14.55M1360,201.77v51.35h15.41q16.25,0,25.52-5.28t9.28-20.39q0-15.12-9.28-20.4t-25.52-5.28Z"/><path class="cls-4" d="M1600.61,285.63l-15.69-43.35h-75.3l-15.68,43.35h-40.22l73-190.24h41.08l73,190.24Zm-79-78.72h51.06l-25.39-69.59Z"/><polygon class="cls-4" points="1698.41 285.63 1660.47 285.63 1660.47 95.39 1698.41 95.39 1698.41 171.83 1770.57 171.83 1770.57 95.39 1808.51 95.39 1808.51 285.63 1770.57 285.63 1770.57 207.19 1698.41 207.19 1698.41 285.63"/><polygon class="cls-4" points="1882.78 285.63 1844.84 285.63 1844.84 95.39 1882.78 95.39 1882.78 169.55 1951.23 95.39 2000 95.39 1925.27 175.53 1998.01 285.63 1953.22 285.63 1899.32 202.92 1882.78 221.17 1882.78 285.63"/></g></svg>